<svg xmlns="http://www.w3.org/2000/svg" xmlns:xlink="http://www.w3.org/1999/xlink" width="500" zoomAndPan="magnify" viewBox="0 0 375 187.499995" height="250" preserveAspectRatio="xMidYMid meet" version="1.0"><defs><clipPath id="b408bd0a70"><path d="M 5.109375 32.703125 L 370.132812 32.703125 L 370.132812 154.628906 L 5.109375 154.628906 Z M 5.109375 32.703125 " clip-rule="nonzero"/></clipPath></defs><g clip-path="url(#b408bd0a70)"><path fill="#ff0000" d="M 5.121094 154.628906 L 370.121094 154.628906 L 370.121094 32.703125 L 5.121094 32.703125 Z M 5.121094 154.628906 " fill-opacity="1" fill-rule="nonzero"/></g><path fill="#ffffff" d="M 330.355469 114.960938 L 337.53125 114.960938 L 337.53125 125.851562 L 307.488281 125.851562 L 307.488281 115.621094 L 313.535156 115.621094 L 304.332031 102.277344 L 295.398438 115.621094 L 301.445312 115.621094 L 301.445312 125.851562 L 275.941406 125.851562 L 275.941406 114.960938 L 282.6875 114.960938 L 297.320312 92.808594 L 282.871094 72.449219 L 277.328125 72.449219 L 277.328125 61.5625 L 305.304688 61.5625 L 305.304688 71.792969 L 299.601562 71.792969 L 308.449219 83.8125 L 316.515625 71.792969 L 311.082031 71.792969 L 311.082031 61.5625 L 337.53125 61.5625 L 337.53125 72.449219 L 329.214844 72.449219 L 315.113281 93.472656 Z M 249.707031 61.5625 L 272.222656 61.5625 L 272.222656 72.449219 L 266.3125 72.449219 L 266.3125 108.429688 C 266.3125 123.386719 251.84375 126.609375 242.921875 126.609375 C 230.566406 126.609375 219.152344 121.78125 219.152344 106.0625 L 219.152344 72.449219 L 212.140625 72.449219 L 212.140625 61.5625 L 239.828125 61.5625 L 239.828125 72.449219 L 234.664062 72.449219 L 234.664062 105.121094 C 234.664062 111.457031 237.613281 115.71875 244.515625 115.71875 C 250.308594 115.71875 254.980469 112.976562 254.980469 105.679688 L 254.980469 72.449219 L 249.707031 72.449219 Z M 73.253906 61.5625 L 97.941406 61.5625 L 97.941406 72.449219 L 92.21875 72.449219 L 75.117188 125.867188 L 61.160156 125.867188 L 43.4375 72.449219 L 36.425781 72.449219 L 36.425781 61.5625 L 65.863281 61.5625 L 65.863281 72.449219 L 59.03125 72.449219 L 68.929688 105.007812 L 69.105469 105.007812 L 79.828125 72.449219 L 73.253906 72.449219 Z M 201.101562 105.382812 L 212.753906 105.382812 L 212.753906 125.851562 L 162.117188 125.851562 L 162.117188 114.960938 L 170.609375 114.960938 L 170.609375 72.449219 L 162.117188 72.449219 L 162.117188 61.5625 L 194.796875 61.5625 L 194.796875 72.449219 L 186.121094 72.449219 L 186.121094 114.960938 L 201.101562 114.960938 Z M 103.046875 61.5625 L 154.796875 61.5625 L 154.796875 81.917969 L 143.496094 81.917969 L 143.496094 72.449219 L 125.007812 72.449219 L 125.007812 87.222656 L 139.90625 87.222656 L 139.90625 98.109375 L 125.007812 98.109375 L 125.007812 114.960938 L 143.496094 114.960938 L 143.496094 105.40625 L 154.796875 105.40625 L 154.796875 125.851562 L 102.496094 125.851562 L 102.496094 114.960938 L 109.507812 114.960938 L 109.507812 72.449219 L 103.046875 72.449219 Z M 336.765625 93.6875 C 336.765625 89.070312 340.269531 85.582031 344.910156 85.582031 C 349.550781 85.582031 353.050781 89.070312 353.050781 93.6875 C 353.050781 98.328125 349.566406 101.832031 344.953125 101.832031 C 340.285156 101.832031 336.765625 98.328125 336.765625 93.6875 Z M 334.890625 93.707031 C 334.890625 99.410156 339.175781 103.710938 344.867188 103.710938 C 350.609375 103.710938 354.933594 99.410156 354.933594 93.707031 C 354.933594 88.003906 350.625 83.699219 344.90625 83.699219 C 339.199219 83.699219 334.890625 88.003906 334.890625 93.707031 Z M 345.039062 89.828125 C 346.265625 89.828125 346.9375 90.382812 346.9375 91.386719 C 346.9375 92.675781 345.90625 92.945312 345.039062 92.945312 C 345.039062 92.945312 343.683594 92.945312 343.515625 92.945312 C 343.515625 92.78125 343.515625 89.988281 343.515625 89.828125 C 343.683594 89.828125 345.039062 89.828125 345.039062 89.828125 Z M 341.527344 88.175781 L 341.441406 88.175781 L 341.441406 98.984375 L 343.605469 98.984375 C 343.605469 98.984375 343.605469 94.765625 343.605469 94.601562 C 343.753906 94.601562 344.527344 94.601562 344.535156 94.601562 C 344.535156 94.675781 347.25 98.941406 347.25 98.941406 L 349.476562 98.984375 L 349.636719 98.984375 C 349.636719 98.984375 346.757812 94.507812 346.644531 94.34375 C 348.148438 93.90625 349.019531 92.847656 349.019531 91.386719 C 349.019531 89.34375 347.609375 88.175781 345.164062 88.175781 Z M 341.527344 88.175781 " fill-opacity="1" fill-rule="nonzero"/></svg>